<svg xmlns="http://www.w3.org/2000/svg" xmlns:xlink="http://www.w3.org/1999/xlink" width="1024" zoomAndPan="magnify" viewBox="0 0 768 767.999994" height="1024" preserveAspectRatio="xMidYMid meet" version="1.0"><defs><clipPath id="c231bc6c62"><path d="M 123 31.960938 L 645 31.960938 L 645 736 L 123 736 Z M 123 31.960938 " clip-rule="nonzero"/></clipPath></defs><g clip-path="url(#c231bc6c62)"><path fill="#ffffff" d="M 603.246094 180.148438 C 608.90625 172.621094 618.542969 161.109375 640.660156 126.507812 C 647.480469 115.84375 645.144531 101.085938 637.820312 90.480469 C 624.257812 70.847656 626.152344 71.75 592.554688 47.601562 C 581.121094 39.382812 558.917969 30.402344 545.804688 32.191406 C 513.597656 36.585938 487.183594 95.679688 475.382812 98.796875 C 458.199219 103.34375 446.867188 126.742188 435.296875 148.136719 C 430.886719 156.289062 436.539062 161.742188 430.453125 168.210938 C 420.648438 178.640625 386.066406 226.253906 378.097656 237.710938 C 133.769531 588.871094 165.949219 533.257812 128.851562 698.054688 C 127.617188 703.546875 121.105469 719.828125 123.957031 728.414062 C 128.84375 743.140625 142.347656 732.871094 155.261719 724.273438 C 368.980469 582.097656 237.589844 698.382812 480.664062 359.871094 C 480.871094 359.585938 524.53125 298.265625 526.226562 295.746094 C 552.46875 256.691406 553.664062 249.179688 562.054688 246.207031 C 568.554688 243.902344 571.582031 239.179688 582.886719 223.347656 C 599.328125 200.320312 608.015625 191.496094 603.246094 180.148438 Z M 506.847656 86.578125 C 537.609375 45.273438 542.523438 31.152344 595.796875 69.832031 C 609.644531 79.882812 626.035156 94.441406 628.765625 111.332031 C 630.074219 119.445312 627.152344 121.828125 611.46875 145.5 C 608.738281 149.621094 600.9375 161.601562 597.601562 165.050781 C 593.503906 169.296875 567.425781 126.882812 504.554688 102.898438 C 495.609375 99.480469 496.390625 100.632812 506.847656 86.578125 Z M 396.324219 236.183594 C 436.152344 178.015625 433.808594 186.75 443.144531 173.863281 C 446.636719 169.046875 447.824219 171.203125 473.121094 182.605469 C 472.996094 182.9375 335.714844 374.804688 307.183594 416.589844 C 211.132812 557.265625 217.976562 555.96875 202.460938 558.511719 C 197.789062 559.277344 185.449219 561.269531 178.710938 561.03125 C 195.351562 523.386719 306.027344 368.058594 396.324219 236.183594 Z M 483.808594 188.765625 C 493.359375 195.628906 502.683594 202.292969 511.96875 209.019531 C 519.878906 214.75 515.558594 211.457031 408.515625 362.605469 C 245.238281 593.191406 267.460938 592.851562 222.546875 594.980469 C 219.347656 587.203125 219.636719 579.539062 219.601562 571.804688 C 219.566406 564.035156 222.890625 558.140625 227.246094 552.019531 C 227.449219 551.734375 454.96875 210.9375 483.808594 188.765625 Z M 187.742188 684.328125 C 184.039062 679.601562 179.652344 671.75 167.574219 664.640625 C 159.292969 659.769531 151.3125 662.332031 152.84375 655.546875 C 155.476562 643.835938 160.402344 627.539062 161.277344 624.445312 C 171.574219 587.988281 171.316406 577.488281 176.078125 576.980469 C 177.359375 576.84375 198.597656 574.5625 201.898438 574.84375 C 210.957031 615.71875 203.707031 613.457031 244.035156 606.371094 C 250.539062 605.230469 248.347656 604.027344 260.835938 637.015625 C 187.976562 684.664062 214.382812 670.449219 187.742188 684.328125 Z M 275.863281 626.722656 C 269.707031 617.285156 265.488281 607.78125 264.164062 596.988281 C 263.339844 590.28125 327.839844 497.066406 331.632812 491.472656 C 347.792969 467.652344 413.878906 369.640625 487.046875 267.691406 C 523.410156 217.011719 521.667969 219.574219 528.035156 221.074219 C 527.640625 223.222656 527.101562 221.894531 545.28125 240.722656 C 535.859375 254.585938 287.046875 619.417969 275.863281 626.722656 Z M 562.242188 226.800781 C 553.855469 234.980469 562.328125 226.621094 507.34375 187.207031 C 489.269531 174.25 469.835938 163.527344 449.078125 154.734375 C 451.304688 147.15625 453.9375 140.550781 458.703125 134.875 C 465.730469 126.507812 471.609375 115.351562 483.074219 114.058594 C 500.34375 112.113281 550.199219 141.328125 582.828125 176.292969 C 587.070312 180.835938 589.613281 186.238281 586.246094 192.464844 C 579.578125 204.808594 572.414062 216.882812 562.242188 226.800781 Z M 562.242188 226.800781 " fill-opacity="1" fill-rule="nonzero"/></g></svg>