<svg xmlns="http://www.w3.org/2000/svg" xmlns:xlink="http://www.w3.org/1999/xlink" width="1024" zoomAndPan="magnify" viewBox="0 0 768 767.999994" height="1024" preserveAspectRatio="xMidYMid meet" version="1.0"><defs><clipPath id="e44f47c32a"><path d="M 21.109375 21.109375 L 747 21.109375 L 747 747 L 21.109375 747 Z M 21.109375 21.109375 " clip-rule="nonzero"/></clipPath><clipPath id="6e49f11339"><path d="M 316.84375 531.765625 L 451.09375 531.765625 L 451.09375 666.015625 L 316.84375 666.015625 Z M 316.84375 531.765625 " clip-rule="nonzero"/></clipPath></defs><path fill="#ffffff" d="M 384 170.378906 C 315.535156 170.378906 259.648438 226.019531 259.648438 294.488281 C 259.648438 363.195312 315.535156 418.835938 384 418.835938 C 452.464844 418.835938 508.351562 363.195312 508.351562 294.488281 C 508.351562 226.019531 452.464844 170.378906 384 170.378906 Z M 384 170.378906 " fill-opacity="1" fill-rule="nonzero"/><g clip-path="url(#e44f47c32a)"><path fill="#ffffff" d="M 383.757812 21.351562 C 183.929688 21.351562 21.109375 183.925781 21.109375 384 C 21.109375 495.285156 71.675781 594.957031 150.78125 661.488281 C 150.78125 661.488281 150.78125 661.488281 150.78125 661.730469 C 213.925781 714.710938 295.214844 746.644531 383.757812 746.644531 C 510.042969 746.644531 625.199219 682.777344 691.972656 575.605469 C 728.019531 518.027344 746.886719 451.980469 746.886719 384 C 746.886719 316.019531 728.019531 249.730469 691.972656 192.394531 C 625.199219 85.21875 510.042969 21.351562 383.757812 21.351562 Z M 651.085938 549.960938 C 639.472656 568.589844 625.925781 585.039062 611.167969 600.523438 C 574.394531 525.042969 496.253906 474.722656 409.886719 474.722656 L 358.113281 474.722656 C 298.117188 474.722656 241.746094 498.1875 199.410156 540.523438 C 181.75 557.945312 167.71875 578.507812 156.832031 600.765625 C 102.882812 544.394531 69.496094 468.1875 69.496094 384 C 69.496094 210.78125 210.539062 69.738281 383.757812 69.738281 C 493.351562 69.738281 593.023438 125.140625 651.085938 218.039062 C 682.050781 267.875 698.503906 325.210938 698.503906 384 C 698.503906 442.789062 682.050781 500.125 651.085938 549.960938 Z M 651.085938 549.960938 " fill-opacity="1" fill-rule="nonzero"/></g><path fill="#ffffff" d="M 384 559.386719 C 371.332031 559.386719 360.988281 569.683594 360.988281 582.355469 C 360.988281 595.070312 371.332031 605.367188 384 605.367188 C 396.667969 605.367188 407.011719 595.070312 407.011719 582.355469 C 407.011719 569.683594 396.667969 559.386719 384 559.386719 Z M 384 559.386719 " fill-opacity="1" fill-rule="nonzero"/><g clip-path="url(#6e49f11339)"><path fill="#ffffff" d="M 383.953125 531.808594 C 346.976562 531.808594 316.84375 561.894531 316.84375 598.917969 C 316.84375 619.511719 326.203125 637.957031 340.84375 650.269531 C 340.84375 650.269531 340.84375 650.269531 340.84375 650.316406 C 352.527344 660.117188 367.570312 666.027344 383.953125 666.027344 C 407.324219 666.027344 428.636719 654.210938 440.992188 634.375 C 447.664062 623.722656 451.152344 611.5 451.152344 598.917969 C 451.152344 586.339844 447.664062 574.070312 440.992188 563.460938 C 428.636719 543.628906 407.324219 531.808594 383.953125 531.808594 Z M 433.425781 629.632812 C 431.277344 633.078125 428.769531 636.121094 426.039062 638.988281 C 419.234375 625.019531 404.773438 615.707031 388.789062 615.707031 L 379.210938 615.707031 C 368.105469 615.707031 357.675781 620.050781 349.839844 627.886719 C 346.574219 631.109375 343.976562 634.914062 341.960938 639.03125 C 331.976562 628.601562 325.800781 614.5 325.800781 598.917969 C 325.800781 566.863281 351.898438 540.761719 383.953125 540.761719 C 404.234375 540.761719 422.679688 551.015625 433.425781 568.207031 C 439.15625 577.429688 442.199219 588.039062 442.199219 598.917969 C 442.199219 609.796875 439.15625 620.410156 433.425781 629.632812 Z M 433.425781 629.632812 " fill-opacity="1" fill-rule="nonzero"/></g></svg>